<?xml version="1.0" encoding="utf-8"?>
<!-- Generator: Adobe Illustrator 25.4.1, SVG Export Plug-In . SVG Version: 6.00 Build 0)  -->
<svg version="1.1" id="Capa_1" xmlns="http://www.w3.org/2000/svg" xmlns:xlink="http://www.w3.org/1999/xlink" x="0px" y="0px"
	 viewBox="0 0 188 42" style="enable-background:new 0 0 188 42;" xml:space="preserve">
<style type="text/css">
	.st0{fill:#FFFFFF;stroke:#FFFFFF;stroke-miterlimit:10;}
	.st1{fill:#FFFFFF;}
</style>
<g>
	<g>
		<rect y="0.56" class="st0" width="2.99" height="38.11"/>
	</g>
	<g>
		<path class="st1" d="M53.38,31.35c-1.14,0.56-3.66,1.31-6.87,1.31c-7.22,0-11.92-4.64-11.92-11.57c0-6.98,5.04-12.04,12.86-12.04
			c2.57,0,4.85,0.61,6.03,1.17l-0.99,3.19c-1.04-0.56-2.67-1.08-5.04-1.08c-5.49,0-8.46,3.84-8.46,8.58c0,5.25,3.56,8.48,8.31,8.48
			c2.47,0,4.1-0.61,5.34-1.12L53.38,31.35z"/>
		<path class="st1" d="M58.49,16.59c0-2.67-0.05-4.97-0.2-7.08h3.81l0.15,4.45h0.2C63.53,10.92,66.15,9,69.07,9
			c0.5,0,0.84,0.05,1.24,0.14v3.89c-0.45-0.09-0.89-0.14-1.48-0.14c-3.07,0-5.24,2.2-5.84,5.3c-0.1,0.56-0.2,1.22-0.2,1.92v12.09
			h-4.3V16.59z"/>
		<path class="st1" d="M79.71,3.14c0.05,1.41-1.04,2.53-2.77,2.53c-1.53,0-2.62-1.13-2.62-2.53c0-1.45,1.14-2.58,2.72-2.58
			C78.67,0.56,79.71,1.69,79.71,3.14z M74.86,32.19V9.51h4.35v22.68H74.86z"/>
		<path class="st1" d="M86.44,16.92c0-2.91-0.1-5.25-0.2-7.4h3.91l0.2,3.89h0.1c1.78-2.76,4.6-4.4,8.5-4.4
			c5.79,0,10.14,4.64,10.14,11.53c0,8.15-5.24,12.18-10.88,12.18c-3.16,0-5.93-1.31-7.37-3.56h-0.1v12.32h-4.3V16.92z M90.74,22.96
			c0,0.61,0.1,1.17,0.2,1.69c0.79,2.86,3.41,4.83,6.53,4.83c4.6,0,7.27-3.56,7.27-8.76c0-4.54-2.52-8.43-7.12-8.43
			c-2.97,0-5.74,2.01-6.58,5.11c-0.15,0.52-0.3,1.13-0.3,1.69V22.96z"/>
		<path class="st1" d="M119.83,3v6.51h6.23v3.14h-6.23v12.23c0,2.81,0.84,4.41,3.26,4.41c1.14,0,1.98-0.14,2.52-0.28l0.2,3.09
			c-0.84,0.33-2.18,0.56-3.86,0.56c-2.03,0-3.66-0.61-4.7-1.73c-1.24-1.22-1.68-3.23-1.68-5.9V12.65h-3.71V9.51h3.71V4.08L119.83,3z
			"/>
		<path class="st1" d="M152.33,20.66c0,8.39-6.13,12.04-11.92,12.04c-6.48,0-11.47-4.5-11.47-11.67c0-7.59,5.24-12.04,11.87-12.04
			C147.68,9,152.33,13.73,152.33,20.66z M133.34,20.9c0,4.97,3.02,8.72,7.27,8.72c4.15,0,7.27-3.7,7.27-8.81
			c0-3.84-2.03-8.71-7.17-8.71C135.56,12.09,133.34,16.59,133.34,20.9z"/>
		<path class="st1" d="M157.83,16.59c0-2.67-0.05-4.97-0.2-7.08h3.81l0.15,4.45h0.2c1.09-3.04,3.71-4.97,6.63-4.97
			c0.5,0,0.84,0.05,1.24,0.14v3.89c-0.44-0.09-0.89-0.14-1.48-0.14c-3.07,0-5.24,2.2-5.84,5.3c-0.1,0.56-0.2,1.22-0.2,1.92v12.09
			h-4.3V16.59z"/>
		<path class="st1" d="M173.41,27.97c1.29,0.8,3.56,1.64,5.74,1.64c3.16,0,4.65-1.5,4.65-3.37c0-1.97-1.24-3.05-4.45-4.17
			c-4.3-1.45-6.33-3.7-6.33-6.42c0-3.65,3.11-6.65,8.26-6.65c2.42,0,4.55,0.65,5.88,1.4l-1.09,3c-0.94-0.56-2.67-1.31-4.89-1.31
			c-2.57,0-4.01,1.41-4.01,3.09c0,1.87,1.43,2.72,4.55,3.84c4.15,1.5,6.28,3.47,6.28,6.84c0,3.98-3.26,6.8-8.95,6.8
			c-2.62,0-5.04-0.61-6.72-1.55L173.41,27.97z"/>
	</g>
	<g>
		<rect x="0.75" y="38.94" class="st1" width="1.5" height="3.06"/>
	</g>
	<path class="st1" d="M6.3,0v42h25V0H6.3z M17.34,35.77c-2.96,0-6.2-0.83-7.84-1.88l1-3.19c1.78,1.05,4.38,1.93,7.11,1.93
		c4.06,0,6.43-2.06,6.43-5.03c0-2.76-1.64-4.33-5.79-5.86c-5.01-1.71-8.11-4.2-8.11-8.36c0-4.59,3.97-8.01,9.94-8.01
		c3.14,0,5.42,0.7,6.79,1.44l-1.09,3.11c-1-0.53-3.05-1.4-5.83-1.4c-4.19,0-5.79,2.41-5.79,4.42c0,2.76,1.87,4.11,6.11,5.69
		c5.2,1.92,7.84,4.33,7.84,8.66C28.1,31.83,24.59,35.77,17.34,35.77z"/>
</g>
</svg>
