{
    "asset" : {
        "generator" : "Khronos glTF Blender I/O v3.2.43",
        "version" : "2.0"
    },
    "scene" : 0,
    "scenes" : [
        {
            "name" : "Scene",
            "nodes" : [
                0
            ]
        }
    ],
    "nodes" : [
        {
            "mesh" : 0,
            "name" : "Cube"
        }
    ],
    "materials" : [
        {
            "doubleSided" : true,
            "name" : "Material",
            "pbrMetallicRoughness" : {
                "baseColorFactor" : [
                    0.800000011920929,
                    0.800000011920929,
                    0.800000011920929,
                    1
                ],
                "metallicFactor" : 0,
                "roughnessFactor" : 0.4000000059604645
            }
        }
    ],
    "meshes" : [
        {
            "name" : "Cube",
            "primitives" : [
                {
                    "attributes" : {
                        "POSITION" : 0,
                        "NORMAL" : 1,
                        "TEXCOORD_0" : 2
                    },
                    "indices" : 3,
                    "material" : 0
                }
            ]
        }
    ],
    "accessors" : [
        {
            "bufferView" : 0,
            "componentType" : 5126,
            "count" : 433,
            "max" : [
                4.701128005981445,
                2.6236860752105713,
                1.7131258249282837
            ],
            "min" : [
                -1.4329853057861328,
                -7.755537509918213,
                -1.1663559675216675
            ],
            "type" : "VEC3"
        },
        {
            "bufferView" : 1,
            "componentType" : 5126,
            "count" : 433,
            "type" : "VEC3"
        },
        {
            "bufferView" : 2,
            "componentType" : 5126,
            "count" : 433,
            "type" : "VEC2"
        },
        {
            "bufferView" : 3,
            "componentType" : 5123,
            "count" : 2334,
            "type" : "SCALAR"
        }
    ],
    "bufferViews" : [
        {
            "buffer" : 0,
            "byteLength" : 5196,
            "byteOffset" : 0
        },
        {
            "buffer" : 0,
            "byteLength" : 5196,
            "byteOffset" : 5196
        },
        {
            "buffer" : 0,
            "byteLength" : 3464,
            "byteOffset" : 10392
        },
        {
            "buffer" : 0,
            "byteLength" : 4668,
            "byteOffset" : 13856
        }
    ],
    "buffers" : [
        {
            "byteLength" : 18524,
            "uri" : "data:application/octet-stream;base64,"
        }
    ]
}
