{
    "asset" : {
        "generator" : "Khronos glTF Blender I/O v3.2.43",
        "version" : "2.0"
    },
    "scene" : 0,
    "scenes" : [
        {
            "name" : "Scene",
            "nodes" : [
                0,
                1,
                2,
                3,
                4,
                5,
                6,
                7,
                8
            ]
        }
    ],
    "nodes" : [
        {
            "mesh" : 0,
            "name" : "Cube",
            "scale" : [
                0.8571709990501404,
                1.1677422523498535,
                0.8260985016822815
            ],
            "translation" : [
                0,
                0.5485183000564575,
                0
            ]
        },
        {
            "mesh" : 1,
            "name" : "Cube.001",
            "translation" : [
                0,
                2.0413501262664795,
                0
            ]
        },
        {
            "mesh" : 2,
            "name" : "Cube.002",
            "scale" : [
                0.21244868636131287,
                0.21244868636131287,
                0.21244868636131287
            ],
            "translation" : [
                -0.15067242085933685,
                2.814959764480591,
                0
            ]
        },
        {
            "mesh" : 3,
            "name" : "Cube.003",
            "scale" : [
                0.21244868636131287,
                0.21244868636131287,
                0.21244868636131287
            ],
            "translation" : [
                0.12799076735973358,
                2.814959764480591,
                0
            ]
        },
        {
            "mesh" : 4,
            "name" : "Cube.004",
            "scale" : [
                0.21244868636131287,
                0.21244868636131287,
                0.21244868636131287
            ],
            "translation" : [
                -0.011340826749801636,
                2.9233288764953613,
                0
            ]
        },
        {
            "mesh" : 5,
            "name" : "Cylinder.002",
            "rotation" : [
                0,
                0,
                -0.7071067094802856,
                0.7071068286895752
            ],
            "scale" : [
                0.6872890591621399,
                0.6872890591621399,
                0.6872890591621399
            ],
            "translation" : [
                -0.8350764513015747,
                1.1723132133483887,
                0.000880897045135498
            ]
        },
        {
            "mesh" : 6,
            "name" : "Cylinder.001",
            "scale" : [
                0.6872890591621399,
                0.6872890591621399,
                0.6872890591621399
            ],
            "translation" : [
                -0.4176706075668335,
                -0.6154437065124512,
                0.008756458759307861
            ]
        },
        {
            "mesh" : 7,
            "name" : "Cylinder.003",
            "scale" : [
                0.6872890591621399,
                0.6872890591621399,
                0.6872890591621399
            ],
            "translation" : [
                0.4013899564743042,
                -0.6154437065124512,
                0.008756458759307861
            ]
        },
        {
            "mesh" : 8,
            "name" : "Cylinder.004",
            "rotation" : [
                0,
                0,
                -0.7071067094802856,
                0.7071068286895752
            ],
            "scale" : [
                0.6872890591621399,
                0.6872890591621399,
                0.6872890591621399
            ],
            "translation" : [
                1.6536074876785278,
                1.1723132133483887,
                0.000880897045135498
            ]
        }
    ],
    "materials" : [
        {
            "doubleSided" : true,
            "name" : "Material",
            "pbrMetallicRoughness" : {
                "baseColorFactor" : [
                    0.800000011920929,
                    0.800000011920929,
                    0.800000011920929,
                    1
                ],
                "metallicFactor" : 0,
                "roughnessFactor" : 0.4000000059604645
            }
        }
    ],
    "meshes" : [
        {
            "name" : "Cube",
            "primitives" : [
                {
                    "attributes" : {
                        "POSITION" : 0,
                        "NORMAL" : 1,
                        "TEXCOORD_0" : 2
                    },
                    "indices" : 3,
                    "material" : 0
                }
            ]
        },
        {
            "name" : "Cube.001",
            "primitives" : [
                {
                    "attributes" : {
                        "POSITION" : 4,
                        "NORMAL" : 5,
                        "TEXCOORD_0" : 6
                    },
                    "indices" : 3,
                    "material" : 0
                }
            ]
        },
        {
            "name" : "Cube.002",
            "primitives" : [
                {
                    "attributes" : {
                        "POSITION" : 7,
                        "NORMAL" : 8,
                        "TEXCOORD_0" : 9
                    },
                    "indices" : 10,
                    "material" : 0
                }
            ]
        },
        {
            "name" : "Cube.003",
            "primitives" : [
                {
                    "attributes" : {
                        "POSITION" : 11,
                        "NORMAL" : 12,
                        "TEXCOORD_0" : 13
                    },
                    "indices" : 10,
                    "material" : 0
                }
            ]
        },
        {
            "name" : "Cube.004",
            "primitives" : [
                {
                    "attributes" : {
                        "POSITION" : 14,
                        "NORMAL" : 15,
                        "TEXCOORD_0" : 16
                    },
                    "indices" : 10,
                    "material" : 0
                }
            ]
        },
        {
            "name" : "Cylinder.003",
            "primitives" : [
                {
                    "attributes" : {
                        "POSITION" : 17,
                        "NORMAL" : 18,
                        "TEXCOORD_0" : 19
                    },
                    "indices" : 20
                }
            ]
        },
        {
            "name" : "Cylinder.004",
            "primitives" : [
                {
                    "attributes" : {
                        "POSITION" : 21,
                        "NORMAL" : 22,
                        "TEXCOORD_0" : 23
                    },
                    "indices" : 20
                }
            ]
        },
        {
            "name" : "Cylinder.005",
            "primitives" : [
                {
                    "attributes" : {
                        "POSITION" : 24,
                        "NORMAL" : 25,
                        "TEXCOORD_0" : 26
                    },
                    "indices" : 20
                }
            ]
        },
        {
            "name" : "Cylinder.006",
            "primitives" : [
                {
                    "attributes" : {
                        "POSITION" : 27,
                        "NORMAL" : 28,
                        "TEXCOORD_0" : 29
                    },
                    "indices" : 20
                }
            ]
        }
    ],
    "accessors" : [
        {
            "bufferView" : 0,
            "componentType" : 5126,
            "count" : 125,
            "max" : [
                1.0555659532546997,
                0.8395062685012817,
                0.8954222798347473
            ],
            "min" : [
                -1.0555659532546997,
                -0.8395062685012817,
                -0.8954222202301025
            ],
            "type" : "VEC3"
        },
        {
            "bufferView" : 1,
            "componentType" : 5126,
            "count" : 125,
            "type" : "VEC3"
        },
        {
            "bufferView" : 2,
            "componentType" : 5126,
            "count" : 125,
            "type" : "VEC2"
        },
        {
            "bufferView" : 3,
            "componentType" : 5123,
            "count" : 576,
            "type" : "SCALAR"
        },
        {
            "bufferView" : 4,
            "componentType" : 5126,
            "count" : 125,
            "max" : [
                0.8395062685012817,
                0.8395062685012817,
                0.8395062685012817
            ],
            "min" : [
                -0.8395062685012817,
                -0.8395062685012817,
                -0.8395062685012817
            ],
            "type" : "VEC3"
        },
        {
            "bufferView" : 5,
            "componentType" : 5126,
            "count" : 125,
            "type" : "VEC3"
        },
        {
            "bufferView" : 6,
            "componentType" : 5126,
            "count" : 125,
            "type" : "VEC2"
        },
        {
            "bufferView" : 7,
            "componentType" : 5126,
            "count" : 39,
            "max" : [
                0.8395062685012817,
                0.8395062685012817,
                0.8395062685012817
            ],
            "min" : [
                -0.8395062685012817,
                -0.8395062685012817,
                -0.8395062685012817
            ],
            "type" : "VEC3"
        },
        {
            "bufferView" : 8,
            "componentType" : 5126,
            "count" : 39,
            "type" : "VEC3"
        },
        {
            "bufferView" : 9,
            "componentType" : 5126,
            "count" : 39,
            "type" : "VEC2"
        },
        {
            "bufferView" : 10,
            "componentType" : 5123,
            "count" : 144,
            "type" : "SCALAR"
        },
        {
            "bufferView" : 11,
            "componentType" : 5126,
            "count" : 39,
            "max" : [
                0.8395062685012817,
                0.8395062685012817,
                0.8395062685012817
            ],
            "min" : [
                -0.8395062685012817,
                -0.8395062685012817,
                -0.8395062685012817
            ],
            "type" : "VEC3"
        },
        {
            "bufferView" : 12,
            "componentType" : 5126,
            "count" : 39,
            "type" : "VEC3"
        },
        {
            "bufferView" : 13,
            "componentType" : 5126,
            "count" : 39,
            "type" : "VEC2"
        },
        {
            "bufferView" : 14,
            "componentType" : 5126,
            "count" : 39,
            "max" : [
                0.8395062685012817,
                0.8395062685012817,
                0.8395062685012817
            ],
            "min" : [
                -0.8395062685012817,
                -0.8395062685012817,
                -0.8395062685012817
            ],
            "type" : "VEC3"
        },
        {
            "bufferView" : 15,
            "componentType" : 5126,
            "count" : 39,
            "type" : "VEC3"
        },
        {
            "bufferView" : 16,
            "componentType" : 5126,
            "count" : 39,
            "type" : "VEC2"
        },
        {
            "bufferView" : 17,
            "componentType" : 5126,
            "count" : 130,
            "max" : [
                0.2473006248474121,
                0.5971164703369141,
                0.2473006248474121
            ],
            "min" : [
                -0.2473006248474121,
                -1.7907525300979614,
                -0.2473006248474121
            ],
            "type" : "VEC3"
        },
        {
            "bufferView" : 18,
            "componentType" : 5126,
            "count" : 130,
            "type" : "VEC3"
        },
        {
            "bufferView" : 19,
            "componentType" : 5126,
            "count" : 130,
            "type" : "VEC2"
        },
        {
            "bufferView" : 20,
            "componentType" : 5123,
            "count" : 372,
            "type" : "SCALAR"
        },
        {
            "bufferView" : 21,
            "componentType" : 5126,
            "count" : 130,
            "max" : [
                0.2473006248474121,
                0.5971164703369141,
                0.2473006248474121
            ],
            "min" : [
                -0.2473006248474121,
                -1.713455080986023,
                -0.2473006248474121
            ],
            "type" : "VEC3"
        },
        {
            "bufferView" : 22,
            "componentType" : 5126,
            "count" : 130,
            "type" : "VEC3"
        },
        {
            "bufferView" : 23,
            "componentType" : 5126,
            "count" : 130,
            "type" : "VEC2"
        },
        {
            "bufferView" : 24,
            "componentType" : 5126,
            "count" : 130,
            "max" : [
                0.2473006248474121,
                0.5971164703369141,
                0.2473006248474121
            ],
            "min" : [
                -0.2473006248474121,
                -1.713455080986023,
                -0.2473006248474121
            ],
            "type" : "VEC3"
        },
        {
            "bufferView" : 25,
            "componentType" : 5126,
            "count" : 130,
            "type" : "VEC3"
        },
        {
            "bufferView" : 26,
            "componentType" : 5126,
            "count" : 130,
            "type" : "VEC2"
        },
        {
            "bufferView" : 27,
            "componentType" : 5126,
            "count" : 130,
            "max" : [
                0.2473006248474121,
                0.5971164703369141,
                0.2473006248474121
            ],
            "min" : [
                -0.2473006248474121,
                -1.7907525300979614,
                -0.2473006248474121
            ],
            "type" : "VEC3"
        },
        {
            "bufferView" : 28,
            "componentType" : 5126,
            "count" : 130,
            "type" : "VEC3"
        },
        {
            "bufferView" : 29,
            "componentType" : 5126,
            "count" : 130,
            "type" : "VEC2"
        }
    ],
    "bufferViews" : [
        {
            "buffer" : 0,
            "byteLength" : 1500,
            "byteOffset" : 0
        },
        {
            "buffer" : 0,
            "byteLength" : 1500,
            "byteOffset" : 1500
        },
        {
            "buffer" : 0,
            "byteLength" : 1000,
            "byteOffset" : 3000
        },
        {
            "buffer" : 0,
            "byteLength" : 1152,
            "byteOffset" : 4000
        },
        {
            "buffer" : 0,
            "byteLength" : 1500,
            "byteOffset" : 5152
        },
        {
            "buffer" : 0,
            "byteLength" : 1500,
            "byteOffset" : 6652
        },
        {
            "buffer" : 0,
            "byteLength" : 1000,
            "byteOffset" : 8152
        },
        {
            "buffer" : 0,
            "byteLength" : 468,
            "byteOffset" : 9152
        },
        {
            "buffer" : 0,
            "byteLength" : 468,
            "byteOffset" : 9620
        },
        {
            "buffer" : 0,
            "byteLength" : 312,
            "byteOffset" : 10088
        },
        {
            "buffer" : 0,
            "byteLength" : 288,
            "byteOffset" : 10400
        },
        {
            "buffer" : 0,
            "byteLength" : 468,
            "byteOffset" : 10688
        },
        {
            "buffer" : 0,
            "byteLength" : 468,
            "byteOffset" : 11156
        },
        {
            "buffer" : 0,
            "byteLength" : 312,
            "byteOffset" : 11624
        },
        {
            "buffer" : 0,
            "byteLength" : 468,
            "byteOffset" : 11936
        },
        {
            "buffer" : 0,
            "byteLength" : 468,
            "byteOffset" : 12404
        },
        {
            "buffer" : 0,
            "byteLength" : 312,
            "byteOffset" : 12872
        },
        {
            "buffer" : 0,
            "byteLength" : 1560,
            "byteOffset" : 13184
        },
        {
            "buffer" : 0,
            "byteLength" : 1560,
            "byteOffset" : 14744
        },
        {
            "buffer" : 0,
            "byteLength" : 1040,
            "byteOffset" : 16304
        },
        {
            "buffer" : 0,
            "byteLength" : 744,
            "byteOffset" : 17344
        },
        {
            "buffer" : 0,
            "byteLength" : 1560,
            "byteOffset" : 18088
        },
        {
            "buffer" : 0,
            "byteLength" : 1560,
            "byteOffset" : 19648
        },
        {
            "buffer" : 0,
            "byteLength" : 1040,
            "byteOffset" : 21208
        },
        {
            "buffer" : 0,
            "byteLength" : 1560,
            "byteOffset" : 22248
        },
        {
            "buffer" : 0,
            "byteLength" : 1560,
            "byteOffset" : 23808
        },
        {
            "buffer" : 0,
            "byteLength" : 1040,
            "byteOffset" : 25368
        },
        {
            "buffer" : 0,
            "byteLength" : 1560,
            "byteOffset" : 26408
        },
        {
            "buffer" : 0,
            "byteLength" : 1560,
            "byteOffset" : 27968
        },
        {
            "buffer" : 0,
            "byteLength" : 1040,
            "byteOffset" : 29528
        }
    ],
    "buffers" : [
        {
            "byteLength" : 30568,
            "uri" : "data:application/octet-stream;base64,"
        }
    ]
}
